#!OML:ASF E:\Steps\Project 1\Capture day 1\Session 2\Subject.ASF
:FULLY-SPECIFIED
:DEGREES
492
root 4.08012 17.0183 7.51626 -154.171 -2.9513 176.758
lowerback -33.0576 -2.03486 -6.20544
upperback -2.93372 -1.44807 -0.662707
thorax 13.8301 -1.45894 1.89966
lowerneck -3.33407 -2.89883 -2.64183
upperneck -2.88503 -3.86341 2.06739
head -0.238952 -1.95529 1.03624
rclavicle -3.76448e-015 -2.5842e-015
rhumerus -34.8697 -19.1101 -79.4668
rradius 28.7203
rwrist 0.109315
rhand -7.63192 -51.6116
rfingers 7.12502
rthumb 18.263 -80.7743
lclavicle -3.76448e-015 -2.5842e-015
lhumerus -31.2513 0.0325469 82.6915
lradius 21.9848
lwrist -5.32577
lhand -20.6667 -11.4615
lfingers 7.12502
lthumb 5.69613 18.4419
rfemur -19.8112 5.158 20.5717
rtibia 7.15593
rfoot -22.4985 -3.41039
rtoes -8.87505
lfemur -21.6735 -9.24855 -23.2361
ltibia 13.7656
lfoot -13.2202 0.563152
ltoes -42.9083
493
root 4.07714 17.0174 7.51393 -154.186 -3.07095 176.843
lowerback -33.3972 -2.03498 -6.0585
upperback -2.65097 -1.41417 -0.728483
thorax 14.2967 -1.43052 1.75225
lowerneck -3.70788 -2.86758 -2.3696
upperneck -2.90929 -3.83707 1.73962
head -0.197968 -1.9475 0.882824
rclavicle 1.95057e-015 2.06736e-014
rhumerus -34.5047 -19.5435 -79.5524
rradius 28.4072
rwrist 0.285104
rhand -7.90382 -51.1308
rfingers 7.12502
rthumb 18.0014 -80.3177
lclavicle 1.95057e-015 2.06736e-014
lhumerus -30.9313 -0.112534 82.5183
lradius 21.9406
lwrist -5.14745
lhand -20.832 -11.5608
lfingers 7.12502
lthumb 5.53658 18.3469
rfemur -19.7881 5.08591 20.7001
rtibia 7.15266
rfoot -22.4793 -3.41315
rtoes -8.74828
lfemur -21.665 -9.31475 -23.0986
ltibia 13.7512
lfoot -13.1793 0.523175
ltoes -42.4143
494
root 4.07393 17.0186 7.51072 -154.243 -3.19174 176.873
lowerback -33.502 -2.00704 -6.00219
upperback -2.52908 -1.35523 -0.807022
thorax 14.4766 -1.39679 1.65792
lowerneck -3.42155 -2.8815 -2.33252
upperneck -3.48138 -3.87573 1.84505
head -0.41759 -1.97486 0.92035
rclavicle -1.93815e-015 1.66979e-014
rhumerus -34.5488 -19.9269 -79.4841
rradius 28.2497
rwrist 0.613139
rhand -7.71049 -50.7928
rfingers 7.12502
rthumb 18.1874 -79.9625
lclavicle -1.93815e-015 1.66979e-014
lhumerus -30.9126 -0.292074 82.3794
lradius 21.9165
lwrist -5.05446
lhand -21.0978 -12.0907
lfingers 7.12502
lthumb 5.27989 17.8235
rfemur -19.6509 4.94635 20.7724
rtibia 7.05979
rfoot -22.1467 -3.3969
rtoes -9.51771
lfemur -21.5557 -9.4844 -23.0229
ltibia 13.6471
lfoot -13.0643 0.513922
ltoes -41.5188
495
root 4.0694 17.0195 7.50327 -154.369 -3.2518 176.89
lowerback -33.4443 -1.97053 -6.01902
upperback -2.49862 -1.28951 -0.8456
thorax 14.4828 -1.36482 1.65463
lowerneck -2.86683 -3.19672 -2.26279
upperneck -4.34786 -4.3272 1.99509
head -0.76422 -2.21419 0.975124
rclavicle -6.33626e-015 2.66371e-014
rhumerus -34.6978 -20.2587 -79.3028
rradius 28.0755
rwrist 0.947796
rhand -7.548 -50.9172
rfingers 7.12502
rthumb 18.3437 -80.0723
lclavicle -6.33626e-015 2.66371e-014
lhumerus -31.1035 -0.357874 82.2984
lradius 21.923
lwrist -5.18069
lhand -21.4778 -12.3273
lfingers 7.12502
lthumb 4.91299 17.5957
rfemur -19.4322 4.81384 20.8153
rtibia 6.98435
rfoot -21.3345 -3.39932
rtoes -12.4239
lfemur -21.3212 -9.57799 -23.0154
ltibia 13.5073
lfoot -12.9311 0.503441
ltoes -40.6588
496
root 4.06189 17.02 7.48977 -154.523 -3.23832 177.041
lowerback -33.4944 -1.8969 -5.8863
upperback -2.41913 -1.22199 -0.833239
thorax 14.5933 -1.32401 1.62476
lowerneck -3.22539 -3.06852 -2.85138
upperneck -4.2162 -4.12036 2.78259
head -0.64146 -2.10856 1.31307
rclavicle 5.69021e-015 6.36111e-015
rhumerus -34.6977 -20.5342 -79.1481
rradius 27.7631
rwrist 1.12702
rhand -7.57745 -50.997
rfingers 7.12502
rthumb 18.3154 -80.1547
lclavicle 5.69021e-015 6.36111e-015
lhumerus -31.2476 -0.354527 82.2299
lradius 21.8873
lwrist -5.19359
lhand -21.6789 -11.7863
lfingers 7.12502
lthumb 4.71879 18.1411
rfemur -19.2218 4.94727 20.9502
rtibia 6.96998
rfoot -22.0159 -3.39069
rtoes -11.0979
lfemur -21.0294 -9.61972 -22.8982
ltibia 13.362
lfoot -12.9164 0.645611
ltoes -40.7499
497
root 4.06137 17.0195 7.4934 -154.37 -3.39743 177.107
lowerback -33.6132 -1.9281 -5.87026
upperback -2.4233 -1.26746 -0.820852
thorax 14.641 -1.34628 1.60664
lowerneck -3.43227 -3.33977 -1.97187
upperneck -3.75694 -4.51414 1.66956
head -0.49894 -2.30341 0.803787
rclavicle -1.11816e-015 -8.34896e-015
rhumerus -34.7568 -20.6615 -79.0839
rradius 27.5895
rwrist 1.21118
rhand -7.20467 -50.9747
rfingers 7.12502
rthumb 18.674 -80.0984
lclavicle -1.11816e-015 -8.34896e-015
lhumerus -31.2391 -0.0599051 82.022
lradius 21.6911
lwrist -5.38004
lhand -21.4519 -11.4223
lfingers 7.12502
lthumb 4.93797 18.5001
rfemur -19.4312 5.08229 21.0464
rtibia 7.05187
rfoot -21.5227 -3.78971
rtoes -14.0199
lfemur -21.2792 -9.51838 -22.7734
ltibia 13.476
lfoot -12.8982 0.431999
ltoes -40.7488
498
root 4.05798 17.0194 7.49343 -154.343 -3.41721 177.139
lowerback -33.663 -1.92562 -5.84614
upperback -2.39297 -1.26217 -0.841923
thorax 14.6964 -1.34212 1.57135
lowerneck -3.0119 -3.40981 -1.99678
upperneck -4.21447 -4.61834 1.83019
head -0.702242 -2.36126 0.872801
rclavicle 1.23992e-014 -1.86858e-014
rhumerus -34.8781 -20.7075 -79.0519
rradius 27.5157
rwrist 1.29886
rhand -6.95283 -50.734
rfingers 7.12502
rthumb 18.9162 -79.8342
lclavicle 1.23992e-014 -1.86858e-014
lhumerus -31.186 0.399745 81.7305
lradius 21.3953
lwrist -5.7229
lhand -21.265 -11.4752
lfingers 7.12502
lthumb 5.11847 18.443
rfemur -19.5177 5.12331 21.0768
rtibia 7.1915
rfoot -22.0201 -3.8264
rtoes -11.471
lfemur -21.291 -9.44523 -22.7542
ltibia 13.4204
lfoot -12.8805 0.421629
ltoes -41.3255
499
root 4.05395 17.0171 7.49205 -154.284 -3.42847 177.169
lowerback -33.7435 -1.95484 -5.85173
upperback -2.37844 -1.29473 -0.829555
thorax 14.7494 -1.35867 1.57125
lowerneck -3.37088 -3.26746 -2.65058
upperneck -4.09426 -4.39148 2.64694
head -0.578998 -2.24494 1.22893
rclavicle 7.62836e-015 3.97569e-015
rhumerus -34.9662 -20.9082 -78.9136
rradius 27.3476
rwrist 1.5257
rhand -7.11065 -50.4087
rfingers 7.12502
rthumb 18.7644 -79.5237
lclavicle 7.62836e-015 3.97569e-015
lhumerus -31.2311 0.728578 81.5133
lradius 21.1975
lwrist -5.87063
lhand -21.2916 -11.5574
lfingers 7.12502
lthumb 5.0928 18.3614
rfemur -19.6351 5.3313 21.0736
rtibia 7.35201
rfoot -21.5934 -4.16074
rtoes -14.0401
lfemur -21.3208 -9.41615 -22.735
ltibia 13.3482
lfoot -12.8593 0.478409
ltoes -42.0297
500
root 4.04994 17.0138 7.48506 -154.234 -3.45673 177.222
lowerback -33.853 -1.96125 -5.85337
upperback -2.34451 -1.29313 -0.817243
thorax 14.8349 -1.35954 1.58276
lowerneck -4.11291 -2.98773 -3.28694
upperneck -3.36867 -3.96663 2.95965
head -0.22435 -2.01572 1.41796
rclavicle 6.53505e-015 -5.56597e-015
rhumerus -35.1123 -21.0452 -78.7821
rradius 27.319
rwrist 1.57901
rhand -7.41911 -50.8963
rfingers 7.12502
rthumb 18.4677 -80.0396
lclavicle 6.53505e-015 -5.56597e-015
lhumerus -31.354 0.95792 81.3808
lradius 21.2122
lwrist -5.91973
lhand -21.1892 -11.4973
lfingers 7.12502
lthumb 5.19164 18.4191
rfemur -19.6611 5.54879 21.09
rtibia 7.36055
rfoot -22.1309 -4.21358
rtoes -11.5322
lfemur -21.3149 -9.41731 -22.6833
ltibia 13.2759
lfoot -12.8218 0.479155
ltoes -42.0253
501
root 4.04606 17.0134 7.47734 -154.267 -3.5169 177.218
lowerback -33.8533 -1.99452 -5.92724
upperback -2.34275 -1.30806 -0.817824
thorax 14.8381 -1.37067 1.61503
lowerneck -3.86829 -3.0999 -2.74952
upperneck -3.59723 -4.15029 2.5293
head -0.350615 -2.11569 1.19464
rclavicle 1.32937e-014 1.31198e-014
rhumerus -35.3429 -20.9173 -78.6959
rradius 27.2957
rwrist 1.48188
rhand -7.63203 -51.6045
rfingers 7.12502
rthumb 18.2629 -80.7671
lclavicle 1.32937e-014 1.31198e-014
lhumerus -31.5628 1.27895 81.1987
lradius 21.2398
lwrist -6.04103
lhand -20.8966 -11.4032
lfingers 7.12502
lthumb 5.4742 18.5061
rfemur -19.5371 5.61006 21.0798
rtibia 7.27029
rfoot -21.5347 -4.4029
rtoes -13.3047
lfemur -21.2191 -9.42993 -22.6938
ltibia 13.2053
lfoot -12.7367 0.436316
ltoes -42.0575
502
root 4.04245 17.0137 7.47373 -154.311 -3.61628 177.169
lowerback -33.7864 -2.05992 -6.04294
upperback -2.36856 -1.35776 -0.816084
thorax 14.7835 -1.39922 1.65937
lowerneck -3.6329 -3.15478 -2.95507
upperneck -3.95663 -4.22357 2.88129
head -0.486351 -2.15714 1.34905
rclavicle 1.36664e-015 2.50469e-014
rhumerus -35.5407 -20.9318 -78.5459
rradius 27.1427
rwrist 1.54457
rhand -7.49258 -51.6526
rfingers 7.12502
rthumb 18.397 -80.8027
lclavicle 1.36664e-015 2.50469e-014
lhumerus -31.7847 1.37076 81.0381
lradius 21.1866
lwrist -6.05229
lhand -20.6332 -11.7015
lfingers 7.12502
lthumb 5.72846 18.201
rfemur -19.3796 5.63664 21.0389
rtibia 7.11695
rfoot -22.0335 -4.51662
rtoes -11.8164
lfemur -21.1386 -9.48361 -22.7447
ltibia 13.1632
lfoot -12.6865 0.431096
ltoes -42.31
503
root 4.03957 17.0143 7.47201 -154.376 -3.71898 177.148
lowerback -33.6808 -2.07868 -6.09983
upperback -2.36149 -1.35832 -0.836003
thorax 14.7477 -1.39921 1.67122
lowerneck -3.09781 -3.49608 -2.94344
upperneck -4.97247 -4.71155 3.19285
head -0.869556 -2.42358 1.46937
rclavicle -3.35449e-015 5.1684e-015
rhumerus -35.7241 -21.1008 -78.4349
rradius 27.1145
rwrist 1.51945
rhand -7.39947 -51.8705
rfingers 7.12502
rthumb 18.4866 -81.0121
lclavicle -3.35449e-015 5.1684e-015
lhumerus -31.9212 1.11533 80.9996
lradius 21.1062
lwrist -5.78018
lhand -20.7495 -11.8446
lfingers 7.12502
lthumb 5.61621 18.0609
rfemur -19.2094 5.67454 21.0304
rtibia 6.95025
rfoot -21.3591 -4.73575
rtoes -14.0911
lfemur -21.0394 -9.4789 -22.7706
ltibia 13.1126
lfoot -12.6665 0.403513
ltoes -42.6402
